# xmcd
#
# Track frame offsets:
#	150
#	10457
#	20504
#	32993
#	43045
#	53385
#	63397
#	74624
#	84527
#	94806
#	104757
#	120813
#	131722
#	141765
#	152058
#	163508
#	175050
#	189351
#	201928
#	214334
#	225555
#	236434
#	247804
#	258732
#	269444
#	281144
#
# Disc length: 3931 seconds
#
# Revision: 1
# Processed by: cddbd v1.5.1PL2 Copyright (c) Steve Scherf et al.
# Submitted via: audiograbber 1.82.02
#
DISCID=770f591a
DTITLE=Various Artist - Dazzling Group Sounds, Vol 8
DYEAR=1900
DGENRE=R&B
TTITLE0=Teeners (Lulu Reed and The) - Why Do Fools Fall In Love
TTITLE1=Motions (Ron and The) - Last Night's Dreams
TTITLE2=Joe Caldwell and Group - I Guess I'm The Lonely One
TTITLE3=Velps - Little Girl
TTITLE4=Rollettes - An Understanding
TTITLE5=Moroccos (Lillian Brooks and The) - For Only You
TTITLE6=Nobles - Do You Love Me
TTITLE7=Shirley Ross and Group - Girl In Love
TTITLE8=Twilighters - Don't Stop Baby
TTITLE9=Toneblenders - I Thank Heaven
TTITLE10=Five Blue Flames (Chris Powell and The) - The Masquerade Is Over
TTITLE11=Riff Raffs (Bobby Page and The) - Sweet Surrender
TTITLE12=Opals - Restless days
TTITLE13=DuDroppers - That's All I Need
TTITLE14=Candlelighters - Would You Do The Same For Me
TTITLE15=Paula Grimes and Group - Zing Went The Strings Of My Heart
TTITLE16=Five Fortunes - You Are My Love
TTITLE17=Nickels (Edd Henry and The) - I Love Only You
TTITLE18=Little Milton and Group - Cross My Heart
TTITLE19=Harptones (Bunny Paul and The) - Such A Night
TTITLE20=Sensations (Yvonne Baker and The) - Party Across The Hall
TTITLE21=Zola Taylor and Group - Make Love To Me
TTITLE22=DuDroppers - Let Nature Take It's Course
TTITLE23=Marylanders (Buster Banks and The) - Sittin' Here Wondering
TTITLE24=Five Keys (Rudy West and The) - Sweetheart(take 4)
TTITLE25=Heartbreakers (Robert Evans and The) - Embraceable You
EXTD=
EXTT0=
EXTT1=
EXTT2=
EXTT3=
EXTT4=
EXTT5=
EXTT6=
EXTT7=
EXTT8=
EXTT9=
EXTT10=
EXTT11=
EXTT12=
EXTT13=
EXTT14=
EXTT15=
EXTT16=
EXTT17=
EXTT18=
EXTT19=
EXTT20=
EXTT21=
EXTT22=
EXTT23=
EXTT24=
EXTT25=
PLAYORDER=
